<svg xmlns="http://www.w3.org/2000/svg" width="209" height="167" viewBox="0 0 209 167">
  <g id="logo-w-w" transform="translate(-16514 -4455)">
    <text id="lay" transform="translate(16587 4616)" fill="#fff" font-size="31" font-family="Vudotronic" letter-spacing="0.045em"><tspan x="0" y="0">LAY</tspan></text>
    <path id="Subtraction_5" data-name="Subtraction 5" d="M41.656,52.916A72.031,72.031,0,0,1,29.1,49.759,58.217,58.217,0,0,1,18.277,44.8a34.572,34.572,0,0,1-9.522-8.117A35.955,35.955,0,0,1,3.022,25.369,63.289,63.289,0,0,1,.537,13.38,79.945,79.945,0,0,1,.11,0h169L156.043,52.681l-60.8.124L66.419,23.059a19.252,19.252,0,0,0-5.06-2.513,22.876,22.876,0,0,0-6.53-.936h-.193L76.174,52.845Z" transform="translate(16553.891 4455)" fill="#fff"/>
    <path id="Subtraction_6" data-name="Subtraction 6" d="M60.852,101H0L14.089,46.655A65.239,65.239,0,0,1,18.6,37.274a92.231,92.231,0,0,1,6.235-9.521A93.416,93.416,0,0,1,34.25,16.973a52.841,52.841,0,0,1,12.217-8.8A73.583,73.583,0,0,1,58.874,3.026,76.341,76.341,0,0,1,72.367,0h43.245L88.066,35.294c.013,0,.726.049,1.784.049a26.072,26.072,0,0,0,6.629-.759,22.947,22.947,0,0,0,7.155-3.866L135.115,0H165L150.461,53.1H73.734L60.853,101Z" transform="translate(16514 4518)" fill="#fff"/>
  </g>
</svg>
